<svg width="100%" viewBox="0 0 20 23" fill="none" xmlns="http://www.w3.org/2000/svg">
<path d="M14.5363 8.05447C14.1169 8.05447 13.769 7.70663 13.769 7.28718V5.87536C13.769 4.80116 13.3087 3.75763 12.5107 3.03126C11.7025 2.29465 10.659 1.95704 9.55405 2.05935C7.71254 2.23327 6.09611 4.1157 6.09611 6.07997V7.07233C6.09611 7.49179 5.74827 7.83963 5.32882 7.83963C4.90936 7.83963 4.56152 7.49179 4.56152 7.07233V6.06974C4.56152 3.31771 6.78156 0.780528 9.41082 0.524763C10.9454 0.381535 12.4186 0.862372 13.544 1.89566C14.6591 2.90849 15.3036 4.36123 15.3036 5.87536V7.28718C15.3036 7.70663 14.9558 8.05447 14.5363 8.05447Z" fill="white"/>
<path d="M13.0015 22.5H6.86316C2.13663 22.5 1.2568 20.3004 1.03173 18.1622L0.264436 12.0341C0.1519 10.9292 0.110977 9.34345 1.18519 8.1567C2.10594 7.13365 3.6303 6.64258 5.8401 6.64258H14.0245C16.2446 6.64258 17.7689 7.14388 18.6795 8.1567C19.7434 9.34345 19.7128 10.9292 19.6002 12.0136L18.8329 18.1622C18.6078 20.3004 17.728 22.5 13.0015 22.5ZM5.8401 8.17717C4.11113 8.17717 2.92439 8.51477 2.32078 9.18999C1.81948 9.74244 1.6558 10.5916 1.78879 11.8602L2.55609 17.9883C2.73001 19.6252 3.18015 20.9756 6.86316 20.9756H13.0015C16.6845 20.9756 17.1346 19.6354 17.3086 18.0088L18.0759 11.8602C18.2089 10.612 18.0452 9.76291 17.5439 9.20022C16.9403 8.51477 15.7535 8.17717 14.0245 8.17717H5.8401Z" fill="white"/>
<path d="M13.4316 12.6784C12.8587 12.6784 12.3983 12.2181 12.3983 11.6554C12.3983 11.0927 12.8587 10.6323 13.4214 10.6323C13.9841 10.6323 14.4444 11.0927 14.4444 11.6554C14.4444 12.2181 13.9943 12.6784 13.4316 12.6784Z" fill="white"/>
<path d="M6.27011 12.6784C5.69719 12.6784 5.23682 12.2181 5.23682 11.6554C5.23682 11.0927 5.69719 10.6323 6.25987 10.6323C6.82256 10.6323 7.28293 11.0927 7.28293 11.6554C7.28293 12.2181 6.83279 12.6784 6.27011 12.6784Z" fill="white"/>
</svg>
