<svg width="100%" viewBox="0 0 48 49" fill="none" xmlns="http://www.w3.org/2000/svg">
<path d="M43.5 6.52344C42.5841 9.49414 40.9051 15.0547 38.8444 20.8437C39.3787 20.9961 39.8366 21.1484 40.2182 21.3008C40.7524 21.4531 41.1341 21.9102 41.1341 22.4434C41.1341 22.6719 41.0577 22.8242 40.9814 23.0527C39.3023 26.252 34.6468 34.6309 30.0675 39.3535C29.9912 39.4297 29.9149 39.5059 29.8386 39.582C27.1673 42.3242 23.4276 44 19.3063 44C11.1399 44 4.5 37.2969 4.5 29.1465C4.5 25.0332 6.10274 21.3008 8.85029 18.6348C8.92661 18.5586 9.00294 18.4824 9.07926 18.4062C13.8112 13.8359 22.2065 9.26562 25.4119 7.51367C25.6409 7.4375 25.7935 7.4375 26.0225 7.4375C26.5568 7.4375 27.0147 7.74219 27.1673 8.27539C27.32 8.65625 27.4726 9.18945 27.6252 9.72266C33.4256 7.66602 38.9971 5.91406 41.9736 5C42.0499 5 42.2025 5 42.2789 5C42.9658 5 43.5 5.5332 43.5 6.21875C43.5 6.29492 43.5 6.44727 43.5 6.52344ZM28.8464 29.375C28.8464 23.9668 24.4961 19.625 19.0773 19.625C13.7348 19.625 9.30822 23.9668 9.30822 29.375C9.30822 34.707 13.7348 39.0488 19.0773 39.0488C24.4961 39.0488 28.8464 34.707 28.8464 29.375ZM19.0773 26.9375C19.0773 28.2324 18.0088 29.2988 16.635 29.2988C15.3376 29.2988 14.1928 28.2324 14.1928 26.8613C14.1928 25.5664 15.3376 24.5 16.635 24.5H16.7114C18.0088 24.5 19.0773 25.5664 19.0773 26.8613C19.0773 26.8613 19.0773 26.8613 19.0773 26.9375ZM21.5196 33.0312C21.5196 33.6406 20.9853 34.1738 20.2984 34.1738C19.6879 34.1738 19.0773 33.6406 19.0773 32.9551C19.0773 32.3457 19.6879 31.8125 20.2984 31.8125C20.9853 31.8125 21.5196 32.3457 21.5196 33.0312Z" fill="white"/>
</svg>
